PathFileType	4	(X/Y/Z)	C:\Users\Tech_3\Documents\Nikita\PSYC9080\walk1.trc
DataRate	CameraRate	NumFrames	NumMarkers	Units	OrigDataRate	OrigDataStartFrame	OrigNumFrames
120.00	120.00	      12	16	mm	120.00	316	      2520
Frame#	Time	R_1M			R_5M			R_CALC			R_MAL			R_KNEE			R_GT			R_ASIS			R_PSIS			L_1M			L_5M			L_CALC			L_MAL			L_KNEE			L_GT			L_ASIS			L_PSIS			
		X1	Y1	Z1	X2	Y2	Z2	X3	Y3	Z3	X4	Y4	Z4	X5	Y5	Z5	X6	Y6	Z6	X7	Y7	Z7	X8	Y8	Z8	X9	Y9	Z9	X10	Y10	Z10	X11	Y11	Z11	X12	Y12	Z12	X13	Y13	Z13	X14	Y14	Z14	X15	Y15	Z15	X16	Y16	Z16	

316	2.625	259.37180	84.90924	240.52151	161.34909	93.25018	201.47971	247.81621	190.95825	64.09361	176.65686	211.79086	171.00912	141.20206	498.00424	414.10223	119.83669	864.39355	296.10889	214.57971	919.01886	384.26477	267.11209	982.37482	154.10805	306.37631	56.18381	358.91113	402.27841	58.35519	351.73087	352.11826	29.70809	156.28656	398.27008	103.40742	236.76840	419.96286	501.47366	311.88138	498.88907	828.05896	323.32968	409.22449	922.46466	393.31711	342.26141	982.00232	155.49965	
317	2.633	256.12860	80.92680	260.55521	159.26669	90.36343	222.19598	248.59448	179.10941	81.52087	177.35645	206.29121	186.70712	142.64310	500.89651	419.98001	119.39616	865.06006	296.31512	215.25014	919.33472	384.15759	266.38574	982.26801	152.97256	306.09366	56.08637	350.20053	402.11218	58.22327	342.51862	351.57791	30.09780	147.15787	398.07471	103.63319	228.34557	419.65866	500.80090	307.59924	498.85117	827.33679	321.15305	409.91129	922.46222	392.58167	341.34952	981.64111	154.07330	
318	2.642	254.40816	79.00395	285.78696	156.74577	87.58771	243.20070	250.56854	167.34396	99.58859	177.14114	200.96451	202.34886	143.86096	503.59006	425.51617	120.37750	865.90369	298.75189	215.98065	919.72339	383.01712	265.66077	982.02734	151.89828	306.11572	55.89904	341.11325	401.99860	58.18005	333.44330	351.81467	30.01923	138.25760	397.55542	103.61317	219.47122	418.94327	499.96484	302.93848	498.37305	826.33545	318.68158	410.47089	922.30231	391.56873	340.55951	981.25311	152.75970	
319	2.650	250.47502	76.05708	307.93820	154.40733	84.79489	264.70712	250.27031	155.73219	117.92124	177.00761	195.10754	218.55473	145.64635	506.04507	430.51596	120.22039	866.53406	298.85907	216.32037	919.92810	382.12888	265.15427	981.73749	150.88481	306.24454	55.75912	332.99350	401.91602	57.89144	324.70007	351.61401	30.39375	129.27460	397.12546	103.88991	211.06775	418.50851	499.35892	298.28009	498.16592	825.36475	316.32809	410.84567	921.70459	389.44760	340.11743	980.74670	151.57455	
320	2.658	247.47986	73.81298	331.23999	152.26089	81.92621	286.68597	250.10892	143.53876	137.31125	176.74545	189.29745	235.15642	147.25989	508.53058	434.94150	120.02833	866.87036	298.71362	216.38940	919.99701	381.36148	264.53210	981.39069	149.87038	306.10046	55.59865	323.85461	401.67938	57.70886	315.23474	351.49301	30.60398	120.44641	396.96948	103.99494	202.29044	418.11371	498.76797	293.32602	497.70691	824.61523	314.02493	409.99359	921.57245	388.72238	339.65121	980.55969	150.34737	
321	2.667	246.57848	72.92757	355.34027	150.08708	79.27600	309.09073	249.49969	130.67642	158.16991	176.17590	183.19986	252.40941	148.95132	510.53137	438.90366	119.86260	867.04535	298.52786	216.41080	919.91626	380.62360	264.05569	981.05371	149.02179	306.25745	55.74462	315.51279	401.59058	57.75037	306.28336	350.86005	31.04981	111.13136	396.70242	104.30772	193.45418	417.87997	497.98517	288.25311	497.03378	823.95129	311.59882	409.96341	921.11157	387.77008	339.08408	980.17828	149.11472	
322	2.675	242.65224	71.12469	377.77319	147.87222	77.00604	331.92767	249.76732	119.23364	178.55203	175.54591	177.34666	269.80627	150.56746	512.61914	441.99475	119.66560	866.95337	298.20956	215.90402	919.57483	380.54718	263.42725	980.58612	147.91888	305.86935	55.41974	305.55087	401.43277	57.35416	297.04318	351.33844	31.13385	102.17818	396.60168	104.76694	184.79944	417.69217	497.39993	283.09525	495.72430	822.72241	309.00275	409.95255	920.38617	386.87073	338.57938	979.78217	147.99541	
323	2.683	240.56027	70.71034	401.28879	145.59885	75.04926	354.95316	247.66528	107.32037	200.00574	174.38681	171.61760	287.42615	152.91394	513.98193	445.12469	119.45532	866.57263	297.73935	216.08989	919.15912	379.26694	262.95560	980.04065	147.03554	306.31583	55.30533	297.58646	401.41846	57.30352	287.89801	350.98596	31.60349	93.31851	396.12924	105.04464	176.14041	417.40872	496.65695	277.61795	496.57571	821.99432	307.02829	409.67838	919.48663	384.73151	337.99738	979.46552	146.96532	
324	2.692	238.46863	70.76518	424.87442	143.53734	73.76641	378.02325	245.26695	96.83933	220.70143	173.67883	165.92342	305.45160	155.12888	515.17914	447.16522	119.32652	865.93616	297.43875	215.83791	918.53308	378.57306	262.33881	979.52155	146.12668	306.23871	55.33193	288.40259	401.15192	57.18639	279.01437	350.37875	32.11982	84.04410	395.83426	105.25053	167.14893	417.54745	496.00153	272.36002	496.87106	821.23328	304.88739	409.16602	918.78314	383.62436	337.41455	979.12366	145.87968	
325	2.700	236.71027	71.62973	448.31409	141.57907	72.82715	401.35129	243.92772	86.00862	242.94513	172.88538	160.31253	323.83301	157.56058	515.95837	448.86771	119.12424	865.38361	297.26700	215.24838	917.76544	378.43832	261.93033	978.94440	145.35489	306.07056	55.27581	279.43857	401.31326	57.00597	270.17422	351.17706	32.32384	75.28105	395.74796	105.70631	158.61491	417.63623	495.47144	266.87512	496.13943	820.40704	302.60452	410.57098	915.00592	378.25369	336.81766	978.85052	145.01758	
326	2.708	235.03011	73.06656	471.50702	140.04210	72.47634	424.57587	242.12827	76.14848	264.69296	171.56946	155.35181	342.21994	159.87437	516.24036	450.13528	118.12558	864.70813	297.79715	215.25847	916.89014	377.59003	261.54321	978.37561	144.76997	306.28427	54.67744	269.78683	401.67767	56.88566	261.25873	350.14063	32.90982	65.92543	395.69870	106.07819	149.82655	417.98758	494.93726	261.39532	495.81006	819.67566	300.67688	410.05661	914.33539	377.76013	336.14905	978.49359	144.36072	
327	2.717	233.46744	75.37730	494.77637	138.56062	72.82099	447.60648	240.43335	66.44042	288.99078	171.09422	150.78769	361.02084	161.78937	516.17114	450.75513	118.15121	863.47278	296.80048	215.02756	915.91931	377.22815	260.61276	977.72504	144.18602	306.40250	54.36203	260.74850	401.85568	56.73166	252.28760	350.22131	33.40628	57.10999	395.04358	106.15717	140.94348	418.03677	494.16760	256.08884	495.66422	818.79572	298.62390	409.52454	913.38116	376.77505	335.24130	977.81714	143.70929	
